<svg aria-hidden="true" style="position: absolute; width: 0; height: 0; overflow: hidden;" version="1.1" 
    xmlns="http://www.w3.org/2000/svg" 
    xmlns:xlink="http://www.w3.org/1999/xlink">
    <defs>
        <symbol id="icon-alert-circle" viewBox="0 0 24 24">
            <title>alert-circle</title>
            <path d="M23 12c0-1.488-0.296-2.91-0.833-4.207-0.558-1.347-1.375-2.558-2.388-3.571s-2.224-1.831-3.571-2.388c-1.298-0.538-2.72-0.834-4.208-0.834s-2.91 0.296-4.207 0.833c-1.347 0.558-2.558 1.375-3.571 2.389s-1.831 2.224-2.389 3.571c-0.537 1.297-0.833 2.719-0.833 4.207s0.296 2.91 0.833 4.207c0.558 1.347 1.375 2.558 2.388 3.571s2.224 1.831 3.571 2.388c1.298 0.538 2.72 0.834 4.208 0.834s2.91-0.296 4.207-0.833c1.347-0.558 2.558-1.375 3.571-2.388s1.831-2.224 2.388-3.571c0.538-1.298 0.834-2.72 0.834-4.208zM21 12c0 1.221-0.243 2.383-0.681 3.442-0.456 1.101-1.124 2.092-1.955 2.922s-1.822 1.499-2.922 1.955c-1.059 0.438-2.221 0.681-3.442 0.681s-2.383-0.243-3.442-0.681c-1.101-0.456-2.092-1.124-2.922-1.955-0.831-0.831-1.499-1.822-1.955-2.922-0.438-1.059-0.681-2.221-0.681-3.442s0.243-2.383 0.681-3.442c0.456-1.101 1.124-2.092 1.955-2.922s1.822-1.499 2.922-1.955c1.059-0.438 2.221-0.681 3.442-0.681s2.383 0.243 3.442 0.681c1.101 0.456 2.092 1.124 2.922 1.955 0.831 0.831 1.499 1.822 1.955 2.922 0.438 1.059 0.681 2.221 0.681 3.442zM11 8v4c0 0.552 0.448 1 1 1s1-0.448 1-1v-4c0-0.552-0.448-1-1-1s-1 0.448-1 1zM13 16c0-0.552-0.448-1-1-1s-1 0.448-1 1 0.448 1 1 1 1-0.448 1-1z"></path>
        </symbol>
        <symbol id="icon-alert-octagon" viewBox="0 0 24 24">
            <title>alert-octagon</title>
            <path d="M7.86 1c-0.256 0-0.512 0.098-0.707 0.293l-5.86 5.86c-0.181 0.181-0.293 0.431-0.293 0.707v8.28c0 0.256 0.098 0.512 0.293 0.707l5.86 5.86c0.181 0.181 0.431 0.293 0.707 0.293h8.28c0.256 0 0.512-0.098 0.707-0.293l5.86-5.86c0.181-0.181 0.293-0.431 0.293-0.707v-8.28c0-0.256-0.098-0.512-0.293-0.707l-5.86-5.86c-0.181-0.181-0.431-0.293-0.707-0.293zM8.274 3h7.452l5.274 5.274v7.452l-5.274 5.274h-7.452l-5.274-5.274v-7.452zM11 8v4c0 0.552 0.448 1 1 1s1-0.448 1-1v-4c0-0.552-0.448-1-1-1s-1 0.448-1 1zM13 16c0-0.552-0.448-1-1-1s-1 0.448-1 1 0.448 1 1 1 1-0.448 1-1z"></path>
        </symbol>
        <symbol id="icon-alert-triangle" viewBox="0 0 24 24">
            <title>alert-triangle</title>
            <path d="M11.148 4.374c0.073-0.123 0.185-0.242 0.334-0.332 0.117-0.071 0.241-0.115 0.366-0.134 0.13-0.020 0.263-0.014 0.391 0.017s0.248 0.087 0.355 0.165c0.102 0.075 0.191 0.17 0.26 0.283l8.466 14.133c0.077 0.131 0.128 0.298 0.13 0.482 0.002 0.137-0.024 0.266-0.071 0.383-0.049 0.122-0.122 0.233-0.214 0.327s-0.202 0.169-0.323 0.221c-0.116 0.049-0.244 0.078-0.37 0.079l-16.939 0.002c-0.152-0.001-0.321-0.041-0.481-0.134-0.119-0.069-0.217-0.156-0.293-0.256-0.080-0.104-0.139-0.224-0.173-0.351s-0.043-0.26-0.026-0.39c0.016-0.125 0.057-0.25 0.118-0.355zM9.432 3.346l-8.47 14.14c-0.21 0.364-0.335 0.741-0.385 1.121-0.052 0.395-0.024 0.792 0.077 1.169s0.275 0.735 0.518 1.051c0.234 0.305 0.53 0.569 0.88 0.771 0.464 0.268 0.976 0.4 1.475 0.402h16.943c0.415-0.005 0.803-0.089 1.156-0.24 0.366-0.156 0.694-0.383 0.967-0.662s0.492-0.611 0.64-0.981c0.143-0.356 0.219-0.745 0.215-1.15-0.006-0.536-0.153-1.044-0.406-1.474l-8.474-14.147c-0.213-0.351-0.483-0.641-0.793-0.868-0.321-0.236-0.683-0.402-1.062-0.495s-0.777-0.112-1.17-0.052c-0.38 0.058-0.753 0.191-1.099 0.401-0.429 0.26-0.775 0.615-1.012 1.014zM11 9v4c0 0.552 0.448 1 1 1s1-0.448 1-1v-4c0-0.552-0.448-1-1-1s-1 0.448-1 1zM13 17c0-0.552-0.448-1-1-1s-1 0.448-1 1 0.448 1 1 1 1-0.448 1-1z"></path>
        </symbol>
        <symbol id="icon-arrow-left" viewBox="0 0 24 24">
            <title>arrow-left</title>
            <path d="M12.707 18.293l-5.293-5.293h11.586c0.552 0 1-0.448 1-1s-0.448-1-1-1h-11.586l5.293-5.293c0.391-0.391 0.391-1.024 0-1.414s-1.024-0.391-1.414 0l-7 7c-0.096 0.096-0.168 0.206-0.217 0.324-0.101 0.245-0.101 0.522 0 0.767 0.048 0.116 0.119 0.224 0.212 0.319 0.002 0.002 0.003 0.003 0.005 0.005l7 7c0.391 0.391 1.024 0.391 1.414 0s0.391-1.024 0-1.414z"></path>
        </symbol>
        <symbol id="icon-arrow-right" viewBox="0 0 24 24">
            <title>arrow-right</title>
            <path d="M11.293 5.707l5.293 5.293h-11.586c-0.552 0-1 0.448-1 1s0.448 1 1 1h11.586l-5.293 5.293c-0.391 0.391-0.391 1.024 0 1.414s1.024 0.391 1.414 0l7-7c0.096-0.096 0.168-0.207 0.217-0.325 0.049-0.12 0.075-0.247 0.076-0.374 0.001-0.133-0.024-0.266-0.076-0.39-0.049-0.118-0.121-0.229-0.217-0.325l-7-7c-0.391-0.391-1.024-0.391-1.414 0s-0.391 1.024 0 1.414z"></path>
        </symbol>
        <symbol id="icon-help-circle" viewBox="0 0 24 24">
            <title>help-circle</title>
            <path d="M23 12c0-1.488-0.296-2.91-0.833-4.207-0.558-1.347-1.375-2.558-2.388-3.571s-2.224-1.831-3.571-2.388c-1.298-0.538-2.72-0.834-4.208-0.834s-2.91 0.296-4.207 0.833c-1.347 0.558-2.558 1.375-3.571 2.389s-1.831 2.224-2.389 3.571c-0.537 1.297-0.833 2.719-0.833 4.207s0.296 2.91 0.833 4.207c0.558 1.347 1.375 2.558 2.388 3.571s2.224 1.831 3.571 2.388c1.298 0.538 2.72 0.834 4.208 0.834s2.91-0.296 4.207-0.833c1.347-0.558 2.558-1.375 3.571-2.388s1.831-2.224 2.388-3.571c0.538-1.298 0.834-2.72 0.834-4.208zM21 12c0 1.221-0.243 2.383-0.681 3.442-0.456 1.101-1.124 2.092-1.955 2.922s-1.822 1.499-2.922 1.955c-1.059 0.438-2.221 0.681-3.442 0.681s-2.383-0.243-3.442-0.681c-1.101-0.456-2.092-1.124-2.922-1.955-0.831-0.831-1.499-1.822-1.955-2.922-0.438-1.059-0.681-2.221-0.681-3.442s0.243-2.383 0.681-3.442c0.456-1.101 1.124-2.092 1.955-2.922s1.822-1.499 2.922-1.955c1.059-0.438 2.221-0.681 3.442-0.681s2.383 0.243 3.442 0.681c1.101 0.456 2.092 1.124 2.922 1.955 0.831 0.831 1.499 1.822 1.955 2.922 0.438 1.059 0.681 2.221 0.681 3.442zM10.033 9.332c0.091-0.257 0.227-0.482 0.396-0.671 0.176-0.197 0.39-0.355 0.626-0.469s0.493-0.18 0.757-0.195c0.253-0.014 0.514 0.021 0.771 0.111 0.227 0.080 0.428 0.195 0.602 0.337 0.179 0.147 0.33 0.324 0.448 0.522 0.183 0.307 0.285 0.665 0.286 1.037 0 0.073-0.009 0.147-0.026 0.219-0.019 0.081-0.049 0.162-0.091 0.246-0.080 0.16-0.203 0.325-0.368 0.49-0.205 0.205-0.455 0.391-0.718 0.553-0.218 0.135-0.434 0.246-0.62 0.333-0.131 0.061-0.245 0.109-0.331 0.144-0.053 0.021-0.095 0.037-0.123 0.047-0.563 0.189-0.847 0.755-0.672 1.279s0.741 0.807 1.265 0.632c0.025-0.008 0.311-0.105 0.709-0.291 0.24-0.112 0.526-0.26 0.823-0.443 0.352-0.217 0.736-0.496 1.080-0.84 0.279-0.279 0.545-0.614 0.743-1.010 0.105-0.21 0.191-0.437 0.248-0.681 0.052-0.218 0.080-0.446 0.080-0.688-0.004-0.731-0.204-1.437-0.567-2.049-0.235-0.395-0.538-0.75-0.9-1.047-0.351-0.288-0.756-0.519-1.205-0.677-0.509-0.179-1.033-0.249-1.544-0.222-0.53 0.029-1.044 0.163-1.513 0.388s-0.894 0.543-1.249 0.939c-0.341 0.38-0.614 0.833-0.793 1.342-0.184 0.521 0.090 1.092 0.611 1.275s1.092-0.091 1.275-0.611zM13 17c0-0.552-0.448-1-1-1s-1 0.448-1 1 0.448 1 1 1 1-0.448 1-1z"></path>
        </symbol>
        <symbol id="icon-info" viewBox="0 0 24 24">
            <title>info</title>
            <path d="M23 12c0-1.488-0.296-2.91-0.833-4.207-0.558-1.347-1.375-2.558-2.388-3.571s-2.224-1.831-3.571-2.388c-1.298-0.538-2.72-0.834-4.208-0.834s-2.91 0.296-4.207 0.833c-1.347 0.558-2.558 1.375-3.571 2.389s-1.831 2.224-2.389 3.571c-0.537 1.297-0.833 2.719-0.833 4.207s0.296 2.91 0.833 4.207c0.558 1.347 1.375 2.558 2.388 3.571s2.224 1.831 3.571 2.388c1.298 0.538 2.72 0.834 4.208 0.834s2.91-0.296 4.207-0.833c1.347-0.558 2.558-1.375 3.571-2.388s1.831-2.224 2.388-3.571c0.538-1.298 0.834-2.72 0.834-4.208zM21 12c0 1.221-0.243 2.383-0.681 3.442-0.456 1.101-1.124 2.092-1.955 2.922s-1.822 1.499-2.922 1.955c-1.059 0.438-2.221 0.681-3.442 0.681s-2.383-0.243-3.442-0.681c-1.101-0.456-2.092-1.124-2.922-1.955-0.831-0.831-1.499-1.822-1.955-2.922-0.438-1.059-0.681-2.221-0.681-3.442s0.243-2.383 0.681-3.442c0.456-1.101 1.124-2.092 1.955-2.922s1.822-1.499 2.922-1.955c1.059-0.438 2.221-0.681 3.442-0.681s2.383 0.243 3.442 0.681c1.101 0.456 2.092 1.124 2.922 1.955 0.831 0.831 1.499 1.822 1.955 2.922 0.438 1.059 0.681 2.221 0.681 3.442zM13 16v-4c0-0.552-0.448-1-1-1s-1 0.448-1 1v4c0 0.552 0.448 1 1 1s1-0.448 1-1zM13 8c0-0.552-0.448-1-1-1s-1 0.448-1 1 0.448 1 1 1 1-0.448 1-1z"></path>
        </symbol>
        <symbol id="icon-x-circle" viewBox="0 0 24 24">
            <title>x-circle</title>
            <path d="M23 12c0-1.488-0.296-2.91-0.833-4.207-0.558-1.347-1.375-2.558-2.388-3.571s-2.224-1.831-3.571-2.388c-1.298-0.538-2.72-0.834-4.208-0.834s-2.91 0.296-4.207 0.833c-1.347 0.558-2.558 1.375-3.571 2.389s-1.831 2.224-2.389 3.571c-0.537 1.297-0.833 2.719-0.833 4.207s0.296 2.91 0.833 4.207c0.558 1.347 1.375 2.558 2.388 3.571s2.224 1.831 3.571 2.388c1.298 0.538 2.72 0.834 4.208 0.834s2.91-0.296 4.207-0.833c1.347-0.558 2.558-1.375 3.571-2.388s1.831-2.224 2.388-3.571c0.538-1.298 0.834-2.72 0.834-4.208zM21 12c0 1.221-0.243 2.383-0.681 3.442-0.456 1.101-1.124 2.092-1.955 2.922s-1.822 1.499-2.922 1.955c-1.059 0.438-2.221 0.681-3.442 0.681s-2.383-0.243-3.442-0.681c-1.101-0.456-2.092-1.124-2.922-1.955-0.831-0.831-1.499-1.822-1.955-2.922-0.438-1.059-0.681-2.221-0.681-3.442s0.243-2.383 0.681-3.442c0.456-1.101 1.124-2.092 1.955-2.922s1.822-1.499 2.922-1.955c1.059-0.438 2.221-0.681 3.442-0.681s2.383 0.243 3.442 0.681c1.101 0.456 2.092 1.124 2.922 1.955 0.831 0.831 1.499 1.822 1.955 2.922 0.438 1.059 0.681 2.221 0.681 3.442zM8.293 9.707l2.293 2.293-2.293 2.293c-0.391 0.391-0.391 1.024 0 1.414s1.024 0.391 1.414 0l2.293-2.293 2.293 2.293c0.391 0.391 1.024 0.391 1.414 0s0.391-1.024 0-1.414l-2.293-2.293 2.293-2.293c0.391-0.391 0.391-1.024 0-1.414s-1.024-0.391-1.414 0l-2.293 2.293-2.293-2.293c-0.391-0.391-1.024-0.391-1.414 0s-0.391 1.024 0 1.414z"></path>
        </symbol>
        <symbol id="icon-x-octagon" viewBox="0 0 24 24">
            <title>x-octagon</title>
            <path d="M7.86 1c-0.256 0-0.512 0.098-0.707 0.293l-5.86 5.86c-0.181 0.181-0.293 0.431-0.293 0.707v8.28c0 0.256 0.098 0.512 0.293 0.707l5.86 5.86c0.181 0.181 0.431 0.293 0.707 0.293h8.28c0.256 0 0.512-0.098 0.707-0.293l5.86-5.86c0.181-0.181 0.293-0.431 0.293-0.707v-8.28c0-0.256-0.098-0.512-0.293-0.707l-5.86-5.86c-0.181-0.181-0.431-0.293-0.707-0.293zM8.274 3h7.452l5.274 5.274v7.452l-5.274 5.274h-7.452l-5.274-5.274v-7.452zM8.293 9.707l2.293 2.293-2.293 2.293c-0.391 0.391-0.391 1.024 0 1.414s1.024 0.391 1.414 0l2.293-2.293 2.293 2.293c0.391 0.391 1.024 0.391 1.414 0s0.391-1.024 0-1.414l-2.293-2.293 2.293-2.293c0.391-0.391 0.391-1.024 0-1.414s-1.024-0.391-1.414 0l-2.293 2.293-2.293-2.293c-0.391-0.391-1.024-0.391-1.414 0s-0.391 1.024 0 1.414z"></path>
        </symbol>
        <symbol id="icon-x-square" viewBox="0 0 24 24">
            <title>x-square</title>
            <path d="M5 2c-0.405 0-0.793 0.081-1.148 0.228-0.367 0.152-0.697 0.375-0.973 0.651s-0.499 0.606-0.651 0.973c-0.147 0.355-0.228 0.743-0.228 1.148v14c0 0.405 0.081 0.793 0.228 1.148 0.152 0.368 0.375 0.698 0.651 0.974s0.606 0.499 0.974 0.651c0.354 0.146 0.742 0.227 1.147 0.227h14c0.405 0 0.793-0.081 1.148-0.228 0.368-0.152 0.698-0.375 0.974-0.651s0.499-0.606 0.651-0.974c0.146-0.354 0.227-0.742 0.227-1.147v-14c0-0.405-0.081-0.793-0.228-1.148-0.152-0.368-0.375-0.698-0.651-0.974s-0.606-0.499-0.974-0.651c-0.354-0.146-0.742-0.227-1.147-0.227zM5 4h14c0.137 0 0.266 0.027 0.382 0.075 0.122 0.050 0.232 0.125 0.325 0.218s0.167 0.203 0.218 0.325c0.048 0.116 0.075 0.245 0.075 0.382v14c0 0.137-0.027 0.266-0.075 0.382-0.050 0.122-0.125 0.232-0.218 0.325s-0.203 0.167-0.325 0.218c-0.116 0.048-0.245 0.075-0.382 0.075h-14c-0.137 0-0.266-0.027-0.382-0.075-0.122-0.050-0.232-0.125-0.325-0.218s-0.167-0.203-0.218-0.325c-0.048-0.116-0.075-0.245-0.075-0.382v-14c0-0.137 0.027-0.266 0.075-0.382 0.050-0.122 0.125-0.232 0.218-0.325s0.203-0.167 0.325-0.218c0.116-0.048 0.245-0.075 0.382-0.075zM14.293 8.293l-2.293 2.293-2.293-2.293c-0.391-0.391-1.024-0.391-1.414 0s-0.391 1.024 0 1.414l2.293 2.293-2.293 2.293c-0.391 0.391-0.391 1.024 0 1.414s1.024 0.391 1.414 0l2.293-2.293 2.293 2.293c0.391 0.391 1.024 0.391 1.414 0s0.391-1.024 0-1.414l-2.293-2.293 2.293-2.293c0.391-0.391 0.391-1.024 0-1.414s-1.024-0.391-1.414 0z"></path>
        </symbol>
        <symbol id="icon-checkmark" viewBox="0 0 20 20">
            <title>checkmark</title>
            <path d="M0 11l2-2 5 5 11-11 2 2-13 13z"></path>
        </symbol>
        <symbol id="icon-checkmark-outline" viewBox="0 0 20 20">
            <title>checkmark-outline</title>
            <path d="M2.93 17.070c-1.884-1.821-3.053-4.37-3.053-7.193 0-5.523 4.477-10 10-10 2.823 0 5.372 1.169 7.19 3.050l0.003 0.003c1.737 1.796 2.807 4.247 2.807 6.947 0 5.523-4.477 10-10 10-2.7 0-5.151-1.070-6.95-2.81l0.003 0.003zM15.66 15.66c1.449-1.449 2.344-3.45 2.344-5.66 0-4.421-3.584-8.004-8.004-8.004-2.21 0-4.211 0.896-5.66 2.344v0c-1.449 1.449-2.344 3.45-2.344 5.66 0 4.421 3.584 8.004 8.004 8.004 2.21 0 4.211-0.896 5.66-2.344v0zM6.7 9.29l2.3 2.31 4.3-4.3 1.4 1.42-5.7 5.68-3.7-3.7 1.4-1.42z"></path>
        </symbol>
        <symbol id="icon-cheveron-outline-down" viewBox="0 0 20 20">
            <title>cheveron-outline-down</title>
            <path d="M20 10c0 5.523-4.477 10-10 10s-10-4.477-10-10v0c0-5.523 4.477-10 10-10s10 4.477 10 10v0zM10 2c-4.418 0-8 3.582-8 8s3.582 8 8 8v0c4.418 0 8-3.582 8-8s-3.582-8-8-8v0zM9.3 12.54l-3.55-3.54 1.41-1.41 2.84 2.81 2.83-2.82 1.41 1.42-4.24 4.24-0.7-0.7z"></path>
        </symbol>
        <symbol id="icon-cheveron-outline-left" viewBox="0 0 20 20">
            <title>cheveron-outline-left</title>
            <path d="M10 20c-5.523 0-10-4.477-10-10s4.477-10 10-10v0c5.523 0 10 4.477 10 10s-4.477 10-10 10v0zM18 10c0-4.418-3.582-8-8-8s-8 3.582-8 8v0c0 4.418 3.582 8 8 8s8-3.582 8-8v0zM7.46 9.3l3.54-3.55 1.41 1.41-2.81 2.84 2.82 2.83-1.42 1.41-4.24-4.24 0.7-0.7z"></path>
        </symbol>
        <symbol id="icon-cheveron-outline-right" viewBox="0 0 20 20">
            <title>cheveron-outline-right</title>
            <path d="M10 0c5.523 0 10 4.477 10 10s-4.477 10-10 10v0c-5.523 0-10-4.477-10-10s4.477-10 10-10v0zM2 10c0 4.418 3.582 8 8 8s8-3.582 8-8v0c0-4.418-3.582-8-8-8s-8 3.582-8 8v0zM12.54 10.7l-3.54 3.55-1.41-1.41 2.81-2.84-2.8-2.83 1.4-1.41 4.24 4.24-0.7 0.7z"></path>
        </symbol>
        <symbol id="icon-cheveron-outline-up" viewBox="0 0 20 20">
            <title>cheveron-outline-up</title>
            <path d="M0 10c0-5.523 4.477-10 10-10s10 4.477 10 10v0c0 5.523-4.477 10-10 10s-10-4.477-10-10v0zM10 18c4.418 0 8-3.582 8-8s-3.582-8-8-8v0c-4.418 0-8 3.582-8 8s3.582 8 8 8v0zM10.7 7.46l3.55 3.54-1.41 1.41-2.84-2.81-2.83 2.8-1.41-1.4 4.24-4.24 0.7 0.7z"></path>
        </symbol>
        <symbol id="icon-close" viewBox="0 0 20 20">
            <title>close</title>
            <path d="M10 8.586l-7.071-7.071-1.414 1.414 7.071 7.071-7.071 7.071 1.414 1.414 7.071-7.071 7.071 7.071 1.414-1.414-7.071-7.071 7.071-7.071-1.414-1.414-7.071 7.071z"></path>
        </symbol>
        <symbol id="icon-close-outline" viewBox="0 0 20 20">
            <title>close-outline</title>
            <path d="M2.93 17.070c-1.884-1.821-3.053-4.37-3.053-7.193 0-5.523 4.477-10 10-10 2.823 0 5.372 1.169 7.19 3.050l0.003 0.003c1.737 1.796 2.807 4.247 2.807 6.947 0 5.523-4.477 10-10 10-2.7 0-5.151-1.070-6.95-2.81l0.003 0.003zM4.34 15.66c1.449 1.449 3.45 2.344 5.66 2.344 4.421 0 8.004-3.584 8.004-8.004 0-2.21-0.896-4.211-2.344-5.66v0c-1.449-1.449-3.45-2.344-5.66-2.344-4.421 0-8.004 3.584-8.004 8.004 0 2.21 0.896 4.211 2.344 5.66v0zM14.24 7.17l-2.83 2.83 2.83 2.83-1.41 1.41-2.83-2.83-2.83 2.83-1.41-1.41 2.83-2.83-2.83-2.83 1.41-1.41 2.83 2.83 2.83-2.83 1.41 1.41z"></path>
        </symbol>
        <symbol id="icon-close-solid" viewBox="0 0 20 20">
            <title>close-solid</title>
            <path d="M2.93 17.070c-1.884-1.821-3.053-4.37-3.053-7.193 0-5.523 4.477-10 10-10 2.823 0 5.372 1.169 7.19 3.050l0.003 0.003c1.737 1.796 2.807 4.247 2.807 6.947 0 5.523-4.477 10-10 10-2.7 0-5.151-1.070-6.95-2.81l0.003 0.003zM11.4 10l2.83-2.83-1.41-1.41-2.82 2.83-2.83-2.83-1.41 1.41 2.83 2.83-2.83 2.83 1.41 1.41 2.83-2.83 2.83 2.83 1.41-1.41-2.83-2.83z"></path>
        </symbol>
        <symbol id="icon-exclamation-outline" viewBox="0 0 20 20">
            <title>exclamation-outline</title>
            <path d="M2.93 17.070c-1.884-1.821-3.053-4.37-3.053-7.193 0-5.523 4.477-10 10-10 2.823 0 5.372 1.169 7.19 3.050l0.003 0.003c1.737 1.796 2.807 4.247 2.807 6.947 0 5.523-4.477 10-10 10-2.7 0-5.151-1.070-6.95-2.81l0.003 0.003zM15.66 15.66c1.449-1.449 2.344-3.45 2.344-5.66 0-4.421-3.584-8.004-8.004-8.004-2.21 0-4.211 0.896-5.66 2.344v0c-1.449 1.449-2.344 3.45-2.344 5.66 0 4.421 3.584 8.004 8.004 8.004 2.21 0 4.211-0.896 5.66-2.344v0zM9 5h2v6h-2v-6zM9 13h2v2h-2v-2z"></path>
        </symbol>
        <symbol id="icon-exclamation-solid" viewBox="0 0 20 20">
            <title>exclamation-solid</title>
            <path d="M2.93 17.070c-1.884-1.821-3.053-4.37-3.053-7.193 0-5.523 4.477-10 10-10 2.823 0 5.372 1.169 7.19 3.050l0.003 0.003c1.737 1.796 2.807 4.247 2.807 6.947 0 5.523-4.477 10-10 10-2.7 0-5.151-1.070-6.95-2.81l0.003 0.003zM9 5v6h2v-6h-2zM9 13v2h2v-2h-2z"></path>
        </symbol>
        <symbol id="icon-information-outline" viewBox="0 0 20 20">
            <title>information-outline</title>
            <path d="M2.93 17.070c-1.884-1.821-3.053-4.37-3.053-7.193 0-5.523 4.477-10 10-10 2.823 0 5.372 1.169 7.19 3.050l0.003 0.003c1.737 1.796 2.807 4.247 2.807 6.947 0 5.523-4.477 10-10 10-2.7 0-5.151-1.070-6.95-2.81l0.003 0.003zM15.66 15.66c1.449-1.449 2.344-3.45 2.344-5.66 0-4.421-3.584-8.004-8.004-8.004-2.21 0-4.211 0.896-5.66 2.344v0c-1.449 1.449-2.344 3.45-2.344 5.66 0 4.421 3.584 8.004 8.004 8.004 2.21 0 4.211-0.896 5.66-2.344v0zM9 11v-2h2v6h-2v-4zM9 5h2v2h-2v-2z"></path>
        </symbol>
        <symbol id="icon-information-solid" viewBox="0 0 20 20">
            <title>information-solid</title>
            <path d="M2.93 17.070c-1.884-1.821-3.053-4.37-3.053-7.193 0-5.523 4.477-10 10-10 2.823 0 5.372 1.169 7.19 3.050l0.003 0.003c1.737 1.796 2.807 4.247 2.807 6.947 0 5.523-4.477 10-10 10-2.7 0-5.151-1.070-6.95-2.81l0.003 0.003zM9 11v4h2v-6h-2v2zM9 5v2h2v-2h-2z"></path>
        </symbol>
        <symbol id="icon-light-bulb" viewBox="0 0 20 20">
            <title>light-bulb</title>
            <path d="M7 13.33c-2.384-1.15-4-3.549-4-6.325 0-3.866 3.134-7 7-7s7 3.134 7 7c0 2.776-1.616 5.174-3.958 6.306l-0.042 0.018v2.67h-6v-2.67zM7 17h6v1.5c0 0.83-0.67 1.5-1.5 1.5h-3c-0.828 0-1.5-0.672-1.5-1.5v0-1.5zM9 11.9v2.1h2v-2.1c2.299-0.481 4-2.492 4-4.899 0-2.761-2.239-5-5-5s-5 2.239-5 5c0 2.407 1.701 4.417 3.967 4.893l0.033 0.006z"></path>
        </symbol>
        <symbol id="icon-menu" viewBox="0 0 20 20">
            <title>menu</title>
            <path d="M0 3h20v2h-20v-2zM0 9h20v2h-20v-2zM0 15h20v2h-20v-2z"></path>
        </symbol>
        <symbol id="icon-question" viewBox="0 0 20 20">
            <title>question</title>
            <path d="M10 20c-5.523 0-10-4.477-10-10s4.477-10 10-10v0c5.523 0 10 4.477 10 10s-4.477 10-10 10v0zM12 7c0 0.28-0.21 0.8-0.42 1l-1.58 1.58c-0.57 0.58-1 1.6-1 2.42v1h2v-1c0-0.29 0.21-0.8 0.42-1l1.58-1.58c0.57-0.58 1-1.6 1-2.42 0-2.209-1.791-4-4-4s-4 1.791-4 4v0h2c0-1.105 0.895-2 2-2s2 0.895 2 2v0zM9 15v2h2v-2h-2z"></path>
        </symbol>
        <symbol id="icon-warning" viewBox="0 0 20 20">
            <title>warning</title>
            <path d="M19.511 17.98l-8.907-16.632c-0.124-0.215-0.354-0.348-0.604-0.348s-0.481 0.133-0.604 0.348l-8.906 16.632c-0.121 0.211-0.119 0.471 0.005 0.68 0.125 0.211 0.352 0.34 0.598 0.34h17.814c0.245 0 0.474-0.129 0.598-0.34 0.124-0.209 0.126-0.469 0.006-0.68zM11 17h-2v-2h2v2zM11 13.5h-2v-6.5h2v6.5z"></path>
        </symbol>
        <symbol id="icon-chevron-down" viewBox="0 0 20 20">
            <title>chevron-down</title>
            <path d="M4.516 7.548c0.436-0.446 1.043-0.481 1.576 0l3.908 3.747 3.908-3.747c0.533-0.481 1.141-0.446 1.574 0 0.436 0.445 0.408 1.197 0 1.615-0.406 0.418-4.695 4.502-4.695 4.502-0.217 0.223-0.502 0.335-0.787 0.335s-0.57-0.112-0.789-0.335c0 0-4.287-4.084-4.695-4.502s-0.436-1.17 0-1.615z"></path>
        </symbol>
        <symbol id="icon-chevron-left" viewBox="0 0 20 20">
            <title>chevron-left</title>
            <path d="M12.452 4.516c0.446 0.436 0.481 1.043 0 1.576l-3.747 3.908 3.747 3.908c0.481 0.533 0.446 1.141 0 1.574-0.445 0.436-1.197 0.408-1.615 0-0.418-0.406-4.502-4.695-4.502-4.695-0.223-0.217-0.335-0.502-0.335-0.787s0.112-0.57 0.335-0.789c0 0 4.084-4.287 4.502-4.695s1.17-0.436 1.615 0z"></path>
        </symbol>
        <symbol id="icon-chevron-right" viewBox="0 0 20 20">
            <title>chevron-right</title>
            <path d="M9.163 4.516c0.418 0.408 4.502 4.695 4.502 4.695 0.223 0.219 0.335 0.504 0.335 0.789s-0.112 0.57-0.335 0.787c0 0-4.084 4.289-4.502 4.695-0.418 0.408-1.17 0.436-1.615 0-0.446-0.434-0.481-1.041 0-1.574l3.747-3.908-3.747-3.908c-0.481-0.533-0.446-1.141 0-1.576s1.197-0.409 1.615 0z"></path>
        </symbol>
        <symbol id="icon-chevron-small-down" viewBox="0 0 20 20">
            <title>chevron-small-down</title>
            <path d="M13.418 7.859c0.271-0.268 0.709-0.268 0.978 0s0.272 0.701 0 0.969l-3.908 3.83c-0.27 0.268-0.707 0.268-0.979 0l-3.908-3.83c-0.27-0.267-0.27-0.701 0-0.969s0.709-0.268 0.978 0l3.421 3.141 3.418-3.141z"></path>
        </symbol>
        <symbol id="icon-chevron-small-left" viewBox="0 0 20 20">
            <title>chevron-small-left</title>
            <path d="M12.141 13.418c0.268 0.271 0.268 0.709 0 0.978s-0.701 0.272-0.969 0l-3.83-3.908c-0.268-0.27-0.268-0.707 0-0.979l3.83-3.908c0.267-0.27 0.701-0.27 0.969 0s0.268 0.709 0 0.978l-3.141 3.421 3.141 3.418z"></path>
        </symbol>
        <symbol id="icon-chevron-small-right" viewBox="0 0 20 20">
            <title>chevron-small-right</title>
            <path d="M11 10l-3.141-3.42c-0.268-0.27-0.268-0.707 0-0.978 0.268-0.27 0.701-0.27 0.969 0l3.83 3.908c0.268 0.271 0.268 0.709 0 0.979l-3.83 3.908c-0.267 0.272-0.701 0.27-0.969 0s-0.268-0.707 0-0.978l3.141-3.419z"></path>
        </symbol>
        <symbol id="icon-chevron-small-up" viewBox="0 0 20 20">
            <title>chevron-small-up</title>
            <path d="M6.582 12.141c-0.271 0.268-0.709 0.268-0.978 0s-0.272-0.701 0-0.969l3.908-3.83c0.27-0.268 0.707-0.268 0.979 0l3.908 3.83c0.27 0.267 0.27 0.701 0 0.969s-0.709 0.268-0.979 0l-3.42-3.141-3.418 3.141z"></path>
        </symbol>
        <symbol id="icon-chevron-thin-down" viewBox="0 0 20 20">
            <title>chevron-thin-down</title>
            <path d="M17.418 6.109c0.272-0.268 0.709-0.268 0.979 0s0.271 0.701 0 0.969l-7.908 7.83c-0.27 0.268-0.707 0.268-0.979 0l-7.908-7.83c-0.27-0.268-0.27-0.701 0-0.969s0.709-0.268 0.979 0l7.419 7.141 7.418-7.141z"></path>
        </symbol>
        <symbol id="icon-chevron-thin-left" viewBox="0 0 20 20">
            <title>chevron-thin-left</title>
            <path d="M13.891 17.418c0.268 0.272 0.268 0.709 0 0.979s-0.701 0.271-0.969 0l-7.83-7.908c-0.268-0.27-0.268-0.707 0-0.979l7.83-7.908c0.268-0.27 0.701-0.27 0.969 0s0.268 0.709 0 0.979l-7.141 7.419 7.141 7.418z"></path>
        </symbol>
        <symbol id="icon-chevron-thin-right" viewBox="0 0 20 20">
            <title>chevron-thin-right</title>
            <path d="M13.25 10l-7.141-7.42c-0.268-0.27-0.268-0.707 0-0.979 0.268-0.27 0.701-0.27 0.969 0l7.83 7.908c0.268 0.271 0.268 0.709 0 0.979l-7.83 7.908c-0.268 0.271-0.701 0.27-0.969 0s-0.268-0.707 0-0.979l7.141-7.417z"></path>
        </symbol>
        <symbol id="icon-chevron-thin-up" viewBox="0 0 20 20">
            <title>chevron-thin-up</title>
            <path d="M2.582 13.891c-0.272 0.268-0.709 0.268-0.979 0s-0.271-0.701 0-0.969l7.908-7.83c0.27-0.268 0.707-0.268 0.979 0l7.908 7.83c0.27 0.268 0.27 0.701 0 0.969s-0.709 0.268-0.978 0l-7.42-7.141-7.418 7.141z"></path>
        </symbol>
        <symbol id="icon-chevron-up" viewBox="0 0 20 20">
            <title>chevron-up</title>
            <path d="M15.484 12.452c-0.436 0.446-1.043 0.481-1.576 0l-3.908-3.747-3.908 3.747c-0.533 0.481-1.141 0.446-1.574 0-0.436-0.445-0.408-1.197 0-1.615 0.406-0.418 4.695-4.502 4.695-4.502 0.217-0.223 0.502-0.335 0.787-0.335s0.57 0.112 0.789 0.335c0 0 4.287 4.084 4.695 4.502s0.436 1.17 0 1.615z"></path>
        </symbol>
        <symbol id="icon-check" viewBox="0 0 20 20">
            <title>check</title>
            <path d="M8.294 16.998c-0.435 0-0.847-0.203-1.111-0.553l-3.573-4.721c-0.465-0.613-0.344-1.486 0.27-1.951 0.615-0.467 1.488-0.344 1.953 0.27l2.351 3.104 5.911-9.492c0.407-0.652 1.267-0.852 1.921-0.445s0.854 1.266 0.446 1.92l-6.984 11.21c-0.242 0.391-0.661 0.635-1.12 0.656-0.022 0.002-0.042 0.002-0.064 0.002z"></path>
        </symbol>
        <symbol id="icon-circle-with-cross" viewBox="0 0 20 20">
            <title>circle-with-cross</title>
            <path d="M10 1.6c-4.639 0-8.4 3.761-8.4 8.4s3.761 8.4 8.4 8.4 8.4-3.761 8.4-8.4c0-4.639-3.761-8.4-8.4-8.4zM14.789 13.061l-1.729 1.729-3.060-3.061-3.061 3.060-1.729-1.729 3.062-3.060-3.061-3.061 1.729-1.728 3.060 3.060 3.061-3.061 1.729 1.729-3.062 3.061 3.061 3.061z"></path>
        </symbol>
        <symbol id="icon-circle-with-minus" viewBox="0 0 20 20">
            <title>circle-with-minus</title>
            <path d="M10 1.6c-4.639 0-8.4 3.761-8.4 8.4s3.761 8.4 8.4 8.4 8.4-3.761 8.4-8.4c0-4.639-3.761-8.4-8.4-8.4zM15 11h-10v-2h10v2z"></path>
        </symbol>
        <symbol id="icon-circle-with-plus" viewBox="0 0 20 20">
            <title>circle-with-plus</title>
            <path d="M10 1.6c-4.639 0-8.4 3.761-8.4 8.4s3.761 8.4 8.4 8.4 8.4-3.761 8.4-8.4c0-4.639-3.761-8.4-8.4-8.4zM15 11h-4v4h-2v-4h-4v-2h4v-4h2v4h4v2z"></path>
        </symbol>
        <symbol id="icon-menu1" viewBox="0 0 20 20">
            <title>menu1</title>
            <path d="M16.4 9h-12.8c-0.552 0-0.6 0.447-0.6 1s0.048 1 0.6 1h12.8c0.552 0 0.6-0.447 0.6-1s-0.048-1-0.6-1zM16.4 13h-12.8c-0.552 0-0.6 0.447-0.6 1s0.048 1 0.6 1h12.8c0.552 0 0.6-0.447 0.6-1s-0.048-1-0.6-1zM3.6 7h12.8c0.552 0 0.6-0.447 0.6-1s-0.048-1-0.6-1h-12.8c-0.552 0-0.6 0.447-0.6 1s0.048 1 0.6 1z"></path>
        </symbol>
        <symbol id="icon-new" viewBox="0 0 20 20">
            <title>new</title>
            <path d="M18.69 12.344l-1.727-1.538c-0.5-0.445-0.5-1.174 0-1.619l1.727-1.539c0.5-0.445 0.367-0.859-0.296-0.924l-2.29-0.217c-0.662-0.062-1.020-0.633-0.791-1.266l1.215-3.383c0.228-0.635-0.051-0.865-0.619-0.514l-2.701 1.67c-0.568 0.354-1.303 0.16-1.631-0.426l-0.978-1.746c-0.329-0.588-0.872-0.59-1.207-0.008l-0.909 1.58c-0.337 0.585-1.108 0.833-1.713 0.556l-1.6-0.734c-0.608-0.28-1.073 0.042-1.037 0.716l0.086 1.615c0.037 0.674-0.461 1.367-1.104 1.541l-1.545 0.414c-0.642 0.174-0.76 0.68-0.26 1.125l1.727 1.539c0.5 0.445 0.5 1.174 0 1.619l-1.727 1.539c-0.5 0.445-0.368 0.877 0.293 0.957l2.095 0.254c0.661 0.080 1.029 0.67 0.818 1.311l-1.074 3.258c-0.211 0.641 0.090 0.889 0.668 0.555l2.463-1.426c0.578-0.334 1.356-0.15 1.729 0.408l1.022 1.539c0.372 0.559 0.931 0.529 1.24-0.068l0.899-1.733c0.31-0.598 1.052-0.842 1.648-0.543l1.734 0.867c0.598 0.297 1.057-0.010 1.021-0.682l-0.087-1.617c-0.035-0.674 0.461-1.365 1.106-1.539l1.543-0.416c0.644-0.174 0.762-0.68 0.262-1.125zM11 14h-2v-2h2v2zM11 11h-2v-5h2v5z"></path>
        </symbol>
        <symbol id="icon-share" viewBox="0 0 20 20">
            <title>share</title>
            <path d="M15 13.442c-0.633 0-1.204 0.246-1.637 0.642l-5.938-3.463c0.046-0.188 0.075-0.384 0.075-0.584s-0.029-0.395-0.075-0.583l5.875-3.429c0.446 0.417 1.042 0.675 1.7 0.675 1.379 0 2.5-1.121 2.5-2.5s-1.121-2.5-2.5-2.5-2.5 1.121-2.5 2.5c0 0.2 0.029 0.396 0.075 0.583l-5.875 3.429c-0.446-0.416-1.042-0.675-1.7-0.675-1.379 0-2.5 1.121-2.5 2.5s1.121 2.5 2.5 2.5c0.658 0 1.254-0.258 1.7-0.675l5.938 3.463c-0.042 0.175-0.067 0.358-0.067 0.546 0 1.342 1.087 2.429 2.429 2.429s2.429-1.088 2.429-2.429-1.087-2.429-2.429-2.429z"></path>
        </symbol>
    </defs>
</svg>